<?xml version="1.0" encoding="iso-8859-1"?>
<!-- Generator: Adobe Illustrator 24.1.0, SVG Export Plug-In . SVG Version: 6.00 Build 0)  -->
<svg version="1.1" id="&#xB808;&#xC774;&#xC5B4;_1" xmlns="http://www.w3.org/2000/svg" xmlns:xlink="http://www.w3.org/1999/xlink"
	 x="0px" y="0px" viewBox="0 0 72 72" style="enable-background:new 0 0 72 72;" xml:space="preserve">
<linearGradient id="SVGID_1_" gradientUnits="userSpaceOnUse" x1="23.9881" y1="27.5454" x2="29.0243" y2="27.5454">
	<stop  offset="0" style="stop-color:#29ABE2;stop-opacity:0.53"/>
	<stop  offset="0.0825" style="stop-color:#3DA7DD;stop-opacity:0.5688"/>
	<stop  offset="0.5371" style="stop-color:#A48FC3;stop-opacity:0.7824"/>
	<stop  offset="0.8523" style="stop-color:#E681B2;stop-opacity:0.9306"/>
	<stop  offset="1" style="stop-color:#FF7BAC"/>
</linearGradient>
<path style="fill:url(#SVGID_1_);" d="M26.259,31.398c-0.588-0.116-1.034-0.635-1.034-1.257c0-0.707,0.575-1.281,1.281-1.281
	c0.706,0,1.281,0.575,1.281,1.281c0,0.62-0.442,1.138-1.027,1.256c0.394,0.026,0.776,0.117,1.147,0.275
	c0.147,0.062,0.286,0.132,0.419,0.208c0.432-0.452,0.698-1.065,0.698-1.739c0-1.175-0.81-2.161-1.9-2.438v-4.527h-1.237v4.527
	c-1.09,0.277-1.9,1.263-1.9,2.438c0,0.691,0.28,1.319,0.733,1.774c0.203-0.144,0.434-0.261,0.694-0.35
	C25.677,31.474,25.959,31.419,26.259,31.398z"/>
<linearGradient id="SVGID_2_" gradientUnits="userSpaceOnUse" x1="23.8759" y1="44.0176" x2="28.9801" y2="44.0176">
	<stop  offset="0" style="stop-color:#29ABE2;stop-opacity:0.53"/>
	<stop  offset="0.0825" style="stop-color:#3DA7DD;stop-opacity:0.5688"/>
	<stop  offset="0.5371" style="stop-color:#A48FC3;stop-opacity:0.7824"/>
	<stop  offset="0.8523" style="stop-color:#E681B2;stop-opacity:0.9306"/>
	<stop  offset="1" style="stop-color:#FF7BAC"/>
</linearGradient>
<path style="fill:url(#SVGID_2_);" d="M26.594,39.895c0.638,0.082,1.132,0.628,1.132,1.288c0,0.716-0.582,1.298-1.298,1.298
	c-0.716,0-1.298-0.582-1.298-1.298c0-0.65,0.481-1.191,1.105-1.284c-0.507-0.015-0.998-0.119-1.473-0.312
	c-0.08-0.033-0.159-0.067-0.236-0.104c-0.404,0.452-0.65,1.048-0.65,1.7c0,1.191,0.821,2.191,1.925,2.471v4.99h1.254v-4.99
	c1.105-0.281,1.925-1.28,1.925-2.471c0-0.697-0.281-1.33-0.736-1.791c-0.192,0.125-0.407,0.229-0.645,0.314
	C27.297,39.814,26.962,39.877,26.594,39.895z"/>
<linearGradient id="SVGID_3_" gradientUnits="userSpaceOnUse" x1="23.764" y1="35.6478" x2="29.3128" y2="35.6478">
	<stop  offset="0" style="stop-color:#FF7BAC"/>
	<stop  offset="0.5209" style="stop-color:#7876B4;stop-opacity:0.7552"/>
	<stop  offset="1" style="stop-color:#0071BC;stop-opacity:0.53"/>
</linearGradient>
<path style="fill:url(#SVGID_3_);" d="M29.187,36.668c-0.084-0.23-0.199-0.433-0.345-0.609c-0.147-0.176-0.32-0.33-0.521-0.464
	c-0.201-0.134-0.423-0.251-0.665-0.351l-1.117-0.465c-0.168-0.067-0.331-0.136-0.49-0.207c-0.159-0.071-0.299-0.151-0.421-0.239
	c-0.121-0.088-0.218-0.188-0.289-0.301c-0.071-0.113-0.107-0.249-0.107-0.408c0-0.301,0.117-0.538,0.351-0.709
	c0.218-0.159,0.505-0.245,0.86-0.256c0.027-0.001,0.054-0.001,0.081-0.001c0.021,0,0.042,0,0.063,0.001
	c0.682-0.022,1.296-0.317,1.737-0.778c-0.133-0.076-0.273-0.146-0.419-0.208c-0.371-0.157-0.753-0.249-1.147-0.275
	c-0.082,0.017-0.167,0.025-0.254,0.025c-0.085,0-0.167-0.008-0.247-0.024c-0.3,0.02-0.581,0.076-0.844,0.167
	c-0.26,0.09-0.491,0.207-0.694,0.35c-0.062,0.044-0.122,0.09-0.179,0.139c-0.243,0.209-0.433,0.454-0.571,0.735
	c-0.138,0.28-0.207,0.584-0.207,0.91c0,0.301,0.048,0.569,0.144,0.804c0.096,0.234,0.224,0.439,0.383,0.615
	c0.159,0.176,0.337,0.326,0.534,0.452c0.197,0.126,0.395,0.23,0.596,0.314l1.13,0.49c0.184,0.075,0.354,0.151,0.508,0.226
	c0.155,0.075,0.289,0.157,0.402,0.245c0.113,0.088,0.201,0.191,0.264,0.308c0.063,0.117,0.094,0.26,0.094,0.427
	c0,0.318-0.121,0.573-0.364,0.766c-0.226,0.179-0.55,0.275-0.971,0.287c-0.031,0.001-0.063,0.001-0.096,0.001
	c-0.016,0-0.032,0-0.048-0.001c-0.719,0.025-1.364,0.348-1.814,0.851c0.077,0.037,0.156,0.071,0.236,0.104
	c0.475,0.193,0.966,0.297,1.473,0.312c0.063-0.009,0.128-0.014,0.193-0.014c0.056,0,0.112,0.004,0.166,0.011
	c0.368-0.018,0.703-0.081,1.005-0.189c0.238-0.085,0.453-0.19,0.645-0.314c0.101-0.066,0.196-0.137,0.284-0.213
	c0.255-0.222,0.45-0.479,0.584-0.772c0.134-0.293,0.201-0.607,0.201-0.942C29.313,37.164,29.271,36.898,29.187,36.668z"/>
<linearGradient id="SVGID_4_" gradientUnits="userSpaceOnUse" x1="8.9499" y1="35.5263" x2="14.0661" y2="35.5263">
	<stop  offset="0" style="stop-color:#FF7BAC"/>
	<stop  offset="0.5209" style="stop-color:#7876B4;stop-opacity:0.7552"/>
	<stop  offset="1" style="stop-color:#0071BC;stop-opacity:0.53"/>
</linearGradient>
<path style="fill:url(#SVGID_4_);" d="M8.95,39.762v-8.471h5.116v1.269h-3.614v2.396h3.083v1.27h-3.083v3.536H8.95z"/>
<linearGradient id="SVGID_5_" gradientUnits="userSpaceOnUse" x1="15.5167" y1="35.604" x2="21.9282" y2="35.604">
	<stop  offset="0" style="stop-color:#FF7BAC"/>
	<stop  offset="0.5209" style="stop-color:#7876B4;stop-opacity:0.7552"/>
	<stop  offset="1" style="stop-color:#0071BC;stop-opacity:0.53"/>
</linearGradient>
<path style="fill:url(#SVGID_5_);" d="M18.729,39.917c-0.492,0-0.935-0.071-1.328-0.214c-0.393-0.143-0.73-0.369-1.01-0.68
	c-0.281-0.311-0.497-0.71-0.648-1.198c-0.151-0.488-0.227-1.082-0.227-1.781v-4.753h1.503v4.87c0,0.458,0.041,0.844,0.123,1.159
	c0.082,0.316,0.199,0.568,0.35,0.758c0.151,0.19,0.33,0.326,0.538,0.408c0.207,0.082,0.44,0.123,0.699,0.123
	c0.259,0,0.496-0.041,0.712-0.123c0.216-0.082,0.402-0.218,0.557-0.408c0.155-0.19,0.276-0.442,0.363-0.758
	c0.086-0.315,0.13-0.701,0.13-1.159v-4.87h1.438v4.753c0,0.699-0.073,1.293-0.22,1.781c-0.147,0.488-0.361,0.887-0.641,1.198
	c-0.281,0.311-0.618,0.538-1.01,0.68C19.664,39.846,19.221,39.917,18.729,39.917z"/>
<linearGradient id="SVGID_6_" gradientUnits="userSpaceOnUse" x1="30.9692" y1="35.5263" x2="36.2019" y2="35.5263">
	<stop  offset="0" style="stop-color:#FF7BAC"/>
	<stop  offset="1" style="stop-color:#0071BC;stop-opacity:0.53"/>
</linearGradient>
<path style="fill:url(#SVGID_6_);" d="M30.969,39.762v-8.471h5.103v1.269h-3.601v2.163h3.044v1.269h-3.044v2.5h3.73v1.269H30.969z"
	/>
<g>
	<linearGradient id="SVGID_7_" gradientUnits="userSpaceOnUse" x1="44.1613" y1="30.3138" x2="62.5913" y2="30.0165">
		<stop  offset="0" style="stop-color:#FF7BAC"/>
		<stop  offset="0.5209" style="stop-color:#7876B4;stop-opacity:0.7552"/>
		<stop  offset="1" style="stop-color:#0071BC;stop-opacity:0.53"/>
	</linearGradient>
	<path style="fill:url(#SVGID_7_);" d="M52.347,30.16c0,0.646,0.463,1.186,1.074,1.306c0.083,0.016,0.169,0.025,0.257,0.025
		c0.09,0,0.179-0.009,0.264-0.026c0.608-0.123,1.067-0.661,1.067-1.305c0-0.734-0.597-1.331-1.331-1.331
		C52.944,28.829,52.347,29.426,52.347,30.16z"/>
	<linearGradient id="SVGID_8_" gradientUnits="userSpaceOnUse" x1="44.2508" y1="35.8654" x2="62.6809" y2="35.5681">
		<stop  offset="0" style="stop-color:#FF7BAC"/>
		<stop  offset="0.5209" style="stop-color:#7876B4;stop-opacity:0.7552"/>
		<stop  offset="1" style="stop-color:#0071BC;stop-opacity:0.53"/>
	</linearGradient>
	<path style="fill:url(#SVGID_8_);" d="M52.945,44.2c-1.148-0.291-2-1.33-2-2.567c0-0.678,0.256-1.297,0.676-1.766
		c0.467-0.522,1.137-0.858,1.884-0.884c0.017,0,0.033,0.001,0.05,0.001c0.034,0,0.067-0.001,0.099-0.001
		c0.438-0.013,0.774-0.112,1.009-0.298c0.252-0.2,0.378-0.465,0.378-0.796c0-0.174-0.033-0.322-0.098-0.444
		c-0.065-0.122-0.156-0.228-0.274-0.32c-0.117-0.091-0.257-0.176-0.417-0.254c-0.161-0.078-0.337-0.156-0.528-0.235l-1.174-0.509
		c-0.209-0.087-0.415-0.195-0.62-0.326c-0.204-0.13-0.389-0.287-0.554-0.469c-0.165-0.183-0.298-0.396-0.398-0.639
		c-0.1-0.243-0.15-0.522-0.15-0.835c0-0.339,0.072-0.654,0.215-0.945c0.143-0.291,0.341-0.546,0.593-0.763
		c0.059-0.051,0.121-0.099,0.186-0.145c-0.47-0.473-0.761-1.125-0.761-1.843c0-1.221,0.841-2.246,1.974-2.533v-4.503
		c-1.576,0.111-3.146,0.621-4.554,1.561l0,0c-4.324,2.887-5.489,8.733-2.602,13.056l7.066,10.583V44.2z"/>
	<linearGradient id="SVGID_9_" gradientUnits="userSpaceOnUse" x1="44.2522" y1="35.954" x2="62.6823" y2="35.6567">
		<stop  offset="0" style="stop-color:#FF7BAC"/>
		<stop  offset="0.5209" style="stop-color:#7876B4;stop-opacity:0.7552"/>
		<stop  offset="1" style="stop-color:#0071BC;stop-opacity:0.53"/>
	</linearGradient>
	<path style="fill:url(#SVGID_9_);" d="M58.893,24.706L58.893,24.706c-1.412-0.951-2.989-1.466-4.573-1.58v4.501
		c1.132,0.288,1.974,1.313,1.974,2.533c0,0.7-0.276,1.336-0.725,1.806c-0.458,0.479-1.096,0.785-1.805,0.808
		c-0.022,0-0.043-0.001-0.065-0.001c-0.029,0-0.057,0-0.085,0.001c-0.369,0.012-0.667,0.1-0.894,0.266
		c-0.243,0.178-0.365,0.424-0.365,0.737c0,0.165,0.037,0.306,0.111,0.424c0.074,0.117,0.174,0.222,0.3,0.313
		c0.126,0.091,0.272,0.174,0.437,0.248c0.165,0.074,0.335,0.146,0.509,0.215l1.161,0.483c0.252,0.104,0.483,0.226,0.691,0.365
		c0.209,0.139,0.389,0.3,0.541,0.483c0.152,0.183,0.272,0.394,0.359,0.632c0.087,0.239,0.13,0.515,0.13,0.828
		c0,0.348-0.07,0.674-0.209,0.978c-0.139,0.305-0.341,0.572-0.606,0.802c-0.091,0.08-0.19,0.153-0.295,0.221
		c0.472,0.479,0.764,1.136,0.764,1.861c0,1.237-0.853,2.276-2,2.567v4.259l7.196-10.686C64.348,33.46,63.206,27.61,58.893,24.706z"
		/>
	<linearGradient id="SVGID_10_" gradientUnits="userSpaceOnUse" x1="44.3462" y1="41.7814" x2="62.7763" y2="41.4842">
		<stop  offset="0" style="stop-color:#FF7BAC"/>
		<stop  offset="0.5209" style="stop-color:#7876B4;stop-opacity:0.7552"/>
		<stop  offset="1" style="stop-color:#0071BC;stop-opacity:0.53"/>
	</linearGradient>
	<path style="fill:url(#SVGID_10_);" d="M54.946,41.632c0-0.685-0.514-1.253-1.176-1.338c-0.057-0.007-0.114-0.011-0.173-0.011
		c-0.068,0-0.135,0.005-0.201,0.015c-0.649,0.097-1.148,0.658-1.148,1.334c0,0.744,0.605,1.349,1.349,1.349
		C54.34,42.981,54.946,42.376,54.946,41.632z"/>
</g>
</svg>
