<svg id="Capa_1" data-name="Capa 1" xmlns="http://www.w3.org/2000/svg" viewBox="0 0 91.14 91.14">
  <defs>
    <style>
      .cls-1 {
        fill: #a5a0a0;
      }
    </style>
  </defs>
  <path class="cls-1" d="M53,7.46A45.59,45.59,0,0,0,20.79,85.27,45.59,45.59,0,0,0,85.27,20.79,45.28,45.28,0,0,0,53,7.46ZM53.09,78c-10,0-18.8-5.6-22.4-14.26a2.31,2.31,0,0,1,0-1.75,2.3,2.3,0,0,1,2.11-1.41A2.28,2.28,0,0,1,34.9,62c2.89,7,10,11.45,18.19,11.45A19.46,19.46,0,0,0,71.17,62a2.28,2.28,0,0,1,2.1-1.37,2.33,2.33,0,0,1,.9.18,2.3,2.3,0,0,1,1.19,3A24.05,24.05,0,0,1,53.09,78ZM67.56,44.15A5.48,5.48,0,1,1,73,38.67,5.49,5.49,0,0,1,67.56,44.15Zm-28.12,0a5.48,5.48,0,1,1,5.48-5.48A5.49,5.49,0,0,1,39.44,44.15Z" transform="translate(-7.46 -7.46)"/>
</svg>
