<svg xmlns="http://www.w3.org/2000/svg" width="30.858" height="27" viewBox="0 0 30.858 27">
  <path id="comment-dots" d="M15.429,32C6.907,32,0,37.611,0,44.536a11.126,11.126,0,0,0,3.435,7.877,15.332,15.332,0,0,1-3.3,5.774.479.479,0,0,0-.09.524A.472.472,0,0,0,.482,59a13.783,13.783,0,0,0,8.474-3.1,18.381,18.381,0,0,0,6.473,1.169c8.522,0,15.429-5.611,15.429-12.536S23.951,32,15.429,32ZM7.714,46.464a1.929,1.929,0,1,1,1.929-1.929A1.927,1.927,0,0,1,7.714,46.464Zm7.714,0a1.929,1.929,0,1,1,1.929-1.929A1.927,1.927,0,0,1,15.429,46.464Zm7.714,0a1.929,1.929,0,1,1,1.929-1.929A1.927,1.927,0,0,1,23.143,46.464Z" transform="translate(0 -32)" fill="#1aaae4"/>
</svg>
