<?xml version="1.0" encoding="iso-8859-1"?>
<!-- Generator: Adobe Illustrator 24.1.0, SVG Export Plug-In . SVG Version: 6.00 Build 0)  -->
<svg version="1.1" id="&#xB808;&#xC774;&#xC5B4;_1" xmlns="http://www.w3.org/2000/svg" xmlns:xlink="http://www.w3.org/1999/xlink"
	 x="0px" y="0px" viewBox="0 0 72 72" style="enable-background:new 0 0 72 72;" xml:space="preserve">
<linearGradient id="SVGID_1_" gradientUnits="userSpaceOnUse" x1="37.4122" y1="27.6359" x2="42.4484" y2="27.6359">
	<stop  offset="0" style="stop-color:#29ABE2;stop-opacity:0.53"/>
	<stop  offset="0.0825" style="stop-color:#3DA7DD;stop-opacity:0.5688"/>
	<stop  offset="0.5371" style="stop-color:#A48FC3;stop-opacity:0.7824"/>
	<stop  offset="0.8523" style="stop-color:#E681B2;stop-opacity:0.9306"/>
	<stop  offset="1" style="stop-color:#FF7BAC"/>
</linearGradient>
<path style="fill:url(#SVGID_1_);" d="M39.683,31.489c-0.588-0.116-1.034-0.635-1.034-1.257c0-0.707,0.575-1.281,1.281-1.281
	s1.281,0.575,1.281,1.281c0,0.62-0.442,1.138-1.027,1.256c0.394,0.026,0.776,0.117,1.147,0.275c0.147,0.062,0.286,0.132,0.419,0.208
	c0.432-0.452,0.698-1.065,0.698-1.739c0-1.175-0.81-2.161-1.9-2.438v-4.527h-1.237v4.527c-1.09,0.277-1.9,1.263-1.9,2.438
	c0,0.691,0.28,1.319,0.733,1.774c0.203-0.144,0.434-0.261,0.694-0.35C39.101,31.565,39.383,31.509,39.683,31.489z"/>
<linearGradient id="SVGID_2_" gradientUnits="userSpaceOnUse" x1="37.3" y1="44.1081" x2="42.4042" y2="44.1081">
	<stop  offset="0" style="stop-color:#29ABE2;stop-opacity:0.53"/>
	<stop  offset="0.0825" style="stop-color:#3DA7DD;stop-opacity:0.5688"/>
	<stop  offset="0.5371" style="stop-color:#A48FC3;stop-opacity:0.7824"/>
	<stop  offset="0.8523" style="stop-color:#E681B2;stop-opacity:0.9306"/>
	<stop  offset="1" style="stop-color:#FF7BAC"/>
</linearGradient>
<path style="fill:url(#SVGID_2_);" d="M40.018,39.985c0.638,0.082,1.132,0.628,1.132,1.288c0,0.716-0.582,1.298-1.298,1.298
	s-1.298-0.582-1.298-1.298c0-0.65,0.481-1.191,1.105-1.284c-0.507-0.015-0.998-0.119-1.473-0.312
	c-0.08-0.033-0.159-0.067-0.236-0.104c-0.404,0.452-0.65,1.048-0.65,1.7c0,1.191,0.821,2.191,1.925,2.471v4.99h1.254v-4.99
	c1.105-0.281,1.925-1.28,1.925-2.471c0-0.697-0.281-1.33-0.736-1.791c-0.192,0.125-0.407,0.229-0.645,0.314
	C40.721,39.904,40.386,39.967,40.018,39.985z"/>
<linearGradient id="SVGID_3_" gradientUnits="userSpaceOnUse" x1="37.1881" y1="35.7383" x2="42.7369" y2="35.7383">
	<stop  offset="0" style="stop-color:#FF7BAC"/>
	<stop  offset="0.5209" style="stop-color:#7876B4;stop-opacity:0.7552"/>
	<stop  offset="1" style="stop-color:#0071BC;stop-opacity:0.53"/>
</linearGradient>
<path style="fill:url(#SVGID_3_);" d="M42.611,36.758c-0.084-0.23-0.199-0.433-0.345-0.609c-0.146-0.176-0.32-0.33-0.521-0.464
	c-0.201-0.134-0.423-0.251-0.665-0.351l-1.117-0.465c-0.168-0.067-0.331-0.136-0.49-0.207c-0.159-0.071-0.299-0.151-0.421-0.239
	c-0.121-0.088-0.218-0.188-0.289-0.301c-0.071-0.113-0.107-0.249-0.107-0.408c0-0.301,0.117-0.538,0.351-0.709
	c0.218-0.159,0.505-0.245,0.86-0.256c0.027-0.001,0.054-0.001,0.081-0.001c0.021,0,0.042,0,0.063,0.001
	c0.682-0.022,1.296-0.317,1.737-0.778c-0.133-0.076-0.273-0.146-0.419-0.208c-0.371-0.157-0.753-0.249-1.147-0.275
	c-0.082,0.017-0.167,0.025-0.254,0.025c-0.085,0-0.167-0.008-0.247-0.024c-0.3,0.02-0.581,0.076-0.844,0.167
	c-0.26,0.09-0.491,0.207-0.694,0.35c-0.062,0.044-0.122,0.09-0.179,0.139c-0.243,0.209-0.433,0.454-0.571,0.735
	c-0.138,0.28-0.207,0.584-0.207,0.91c0,0.301,0.048,0.569,0.144,0.804c0.096,0.234,0.224,0.439,0.383,0.615
	c0.159,0.176,0.337,0.326,0.534,0.452c0.197,0.126,0.395,0.23,0.596,0.314l1.13,0.49c0.184,0.075,0.354,0.151,0.508,0.226
	c0.155,0.075,0.289,0.157,0.402,0.245c0.113,0.088,0.201,0.191,0.264,0.308c0.063,0.117,0.094,0.26,0.094,0.427
	c0,0.318-0.121,0.573-0.364,0.766c-0.226,0.179-0.55,0.275-0.971,0.287c-0.031,0.001-0.063,0.001-0.096,0.001
	c-0.016,0-0.032,0-0.048-0.001c-0.719,0.025-1.364,0.348-1.814,0.851c0.077,0.037,0.156,0.071,0.236,0.104
	c0.475,0.193,0.966,0.297,1.473,0.312c0.063-0.009,0.128-0.014,0.193-0.014c0.056,0,0.112,0.004,0.166,0.011
	c0.368-0.018,0.703-0.081,1.005-0.189c0.238-0.085,0.453-0.19,0.645-0.314c0.101-0.066,0.196-0.137,0.284-0.213
	c0.255-0.222,0.45-0.479,0.584-0.772c0.134-0.293,0.201-0.607,0.201-0.942C42.737,37.254,42.695,36.989,42.611,36.758z"/>
<linearGradient id="SVGID_4_" gradientUnits="userSpaceOnUse" x1="22.374" y1="35.6168" x2="27.4902" y2="35.6168">
	<stop  offset="0" style="stop-color:#FF7BAC"/>
	<stop  offset="0.5209" style="stop-color:#7876B4;stop-opacity:0.7552"/>
	<stop  offset="1" style="stop-color:#0071BC;stop-opacity:0.53"/>
</linearGradient>
<path style="fill:url(#SVGID_4_);" d="M22.374,39.852v-8.471h5.116v1.269h-3.614v2.396h3.083v1.27h-3.083v3.536H22.374z"/>
<linearGradient id="SVGID_5_" gradientUnits="userSpaceOnUse" x1="28.9408" y1="35.6945" x2="35.3523" y2="35.6945">
	<stop  offset="0" style="stop-color:#FF7BAC"/>
	<stop  offset="0.5209" style="stop-color:#7876B4;stop-opacity:0.7552"/>
	<stop  offset="1" style="stop-color:#0071BC;stop-opacity:0.53"/>
</linearGradient>
<path style="fill:url(#SVGID_5_);" d="M32.153,40.008c-0.492,0-0.935-0.071-1.328-0.214c-0.393-0.143-0.73-0.369-1.01-0.68
	c-0.281-0.311-0.497-0.71-0.648-1.198c-0.151-0.488-0.227-1.082-0.227-1.781v-4.753h1.503v4.87c0,0.458,0.041,0.844,0.123,1.159
	c0.082,0.315,0.199,0.568,0.35,0.758c0.151,0.19,0.33,0.326,0.538,0.408c0.207,0.082,0.44,0.123,0.699,0.123
	c0.259,0,0.496-0.041,0.712-0.123c0.216-0.082,0.402-0.218,0.557-0.408c0.155-0.19,0.276-0.442,0.363-0.758
	c0.086-0.315,0.13-0.701,0.13-1.159v-4.87h1.438v4.753c0,0.699-0.073,1.293-0.22,1.781c-0.147,0.488-0.361,0.887-0.641,1.198
	c-0.281,0.311-0.618,0.538-1.01,0.68C33.088,39.936,32.645,40.008,32.153,40.008z"/>
<linearGradient id="SVGID_6_" gradientUnits="userSpaceOnUse" x1="44.3933" y1="35.6168" x2="49.626" y2="35.6168">
	<stop  offset="0" style="stop-color:#FF7BAC"/>
	<stop  offset="1" style="stop-color:#0071BC;stop-opacity:0.53"/>
</linearGradient>
<path style="fill:url(#SVGID_6_);" d="M44.393,39.852v-8.471h5.103v1.269h-3.601v2.163h3.044v1.269h-3.044v2.5h3.73v1.269H44.393z"
	/>
</svg>
