<svg id="레이어_1" data-name="레이어 1" xmlns="http://www.w3.org/2000/svg" xmlns:xlink="http://www.w3.org/1999/xlink" viewBox="0 0 54.1 25.52">
  <defs>
    <style>
      .cls-1 {
        fill: url(#무제_그라디언트_29);
      }

      .cls-2 {
        fill: url(#무제_그라디언트_29-2);
      }

      .cls-3 {
        fill: url(#무제_그라디언트_13);
      }

      .cls-4 {
        fill: url(#무제_그라디언트_13-2);
      }

      .cls-5 {
        fill: url(#무제_그라디언트_13-3);
      }

      .cls-6 {
        fill: url(#무제_그라디언트_25);
      }

      .cls-7 {
        fill: url(#무제_그라디언트_13-4);
      }

      .cls-8 {
        fill: url(#무제_그라디언트_13-5);
      }

      .cls-9 {
        fill: url(#무제_그라디언트_13-6);
      }

      .cls-10 {
        fill: url(#무제_그라디언트_13-7);
      }
    </style>
    <linearGradient id="무제_그라디언트_29" data-name="무제 그라디언트 29" x1="23.99" y1="27.55" x2="29.02" y2="27.55" gradientUnits="userSpaceOnUse">
      <stop offset="0" stop-color="#29abe2" stop-opacity="0.53"/>
      <stop offset="0.15" stop-color="#4da3d9" stop-opacity="0.61"/>
      <stop offset="0.57" stop-color="#ac8ec1" stop-opacity="0.82"/>
      <stop offset="0.86" stop-color="#e880b2" stop-opacity="0.95"/>
      <stop offset="1" stop-color="#ff7bac"/>
    </linearGradient>
    <linearGradient id="무제_그라디언트_29-2" x1="23.88" y1="44.02" x2="28.98" y2="44.02" xlink:href="#무제_그라디언트_29"/>
    <linearGradient id="무제_그라디언트_13" data-name="무제 그라디언트 13" x1="23.76" y1="35.65" x2="29.31" y2="35.65" gradientUnits="userSpaceOnUse">
      <stop offset="0" stop-color="#ff7bac"/>
      <stop offset="0.52" stop-color="#7876b4" stop-opacity="0.75"/>
      <stop offset="1" stop-color="#0071bc" stop-opacity="0.53"/>
    </linearGradient>
    <linearGradient id="무제_그라디언트_13-2" x1="8.95" y1="35.53" x2="14.07" y2="35.53" xlink:href="#무제_그라디언트_13"/>
    <linearGradient id="무제_그라디언트_13-3" x1="15.52" y1="35.6" x2="21.93" y2="35.6" xlink:href="#무제_그라디언트_13"/>
    <linearGradient id="무제_그라디언트_25" data-name="무제 그라디언트 25" x1="30.97" y1="35.53" x2="36.2" y2="35.53" gradientUnits="userSpaceOnUse">
      <stop offset="0" stop-color="#ff7bac"/>
      <stop offset="1" stop-color="#0071bc" stop-opacity="0.53"/>
    </linearGradient>
    <linearGradient id="무제_그라디언트_13-4" x1="44.16" y1="30.31" x2="62.59" y2="30.02" xlink:href="#무제_그라디언트_13"/>
    <linearGradient id="무제_그라디언트_13-5" x1="44.25" y1="35.87" x2="62.68" y2="35.57" xlink:href="#무제_그라디언트_13"/>
    <linearGradient id="무제_그라디언트_13-6" x1="44.25" y1="35.95" x2="62.68" y2="35.66" xlink:href="#무제_그라디언트_13"/>
    <linearGradient id="무제_그라디언트_13-7" x1="44.35" y1="41.78" x2="62.78" y2="41.48" xlink:href="#무제_그라디언트_13"/>
  </defs>
  <g>
    <path class="cls-1" d="M26.26,31.4a1.28,1.28,0,1,1,.5,0,3.33,3.33,0,0,1,1.15.27,4.11,4.11,0,0,1,.42.21,2.52,2.52,0,0,0-1.21-4.18V23.18H25.89V27.7a2.52,2.52,0,0,0-1.17,4.22,2.66,2.66,0,0,1,.69-.36A3.37,3.37,0,0,1,26.26,31.4Z" transform="translate(-8.95 -23.12)"/>
    <path class="cls-2" d="M26.59,39.89a1.3,1.3,0,0,1-.16,2.59,1.3,1.3,0,0,1-.2-2.58,4.45,4.45,0,0,1-1.47-.31l-.23-.11a2.51,2.51,0,0,0-.65,1.7,2.55,2.55,0,0,0,1.92,2.47v5h1.25v-5a2.54,2.54,0,0,0,1.19-4.26,2.94,2.94,0,0,1-.64.32A3.49,3.49,0,0,1,26.59,39.89Z" transform="translate(-8.95 -23.12)"/>
    <path class="cls-3" d="M29.19,36.67a2.16,2.16,0,0,0-.35-.61,2.35,2.35,0,0,0-.52-.47,4.12,4.12,0,0,0-.66-.35l-1.12-.46-.49-.21a2.1,2.1,0,0,1-.42-.24,1,1,0,0,1-.29-.3.76.76,0,0,1-.11-.41.85.85,0,0,1,.35-.71,1.59,1.59,0,0,1,.86-.25h.15a2.54,2.54,0,0,0,1.74-.78,4.11,4.11,0,0,0-.42-.21,3.33,3.33,0,0,0-1.15-.27l-.25,0-.25,0a3.37,3.37,0,0,0-.85.16,2.66,2.66,0,0,0-.69.36l-.18.13a2.41,2.41,0,0,0-.57.74,2.14,2.14,0,0,0-.06,1.71,2,2,0,0,0,.38.62,3.24,3.24,0,0,0,.53.45,3.43,3.43,0,0,0,.6.31l1.13.49.51.23a2.49,2.49,0,0,1,.4.24,1,1,0,0,1,.26.31.83.83,0,0,1,.1.43.9.9,0,0,1-.37.76,1.56,1.56,0,0,1-1,.29h-.14a2.57,2.57,0,0,0-1.81.85l.23.11a4.45,4.45,0,0,0,1.47.31l.2,0h.16a3.49,3.49,0,0,0,1-.18,2.94,2.94,0,0,0,.64-.32,1.54,1.54,0,0,0,.29-.21,2.27,2.27,0,0,0,.58-.77,2.18,2.18,0,0,0,.2-.94A2.41,2.41,0,0,0,29.19,36.67Z" transform="translate(-8.95 -23.12)"/>
    <path class="cls-4" d="M9,39.76V31.29h5.12v1.27H10.45V35h3.09v1.27H10.45v3.53Z" transform="translate(-8.95 -23.12)"/>
    <path class="cls-5" d="M18.73,39.92a3.71,3.71,0,0,1-1.33-.22,2.48,2.48,0,0,1-1-.68,3.16,3.16,0,0,1-.65-1.19A6.21,6.21,0,0,1,15.52,36V31.29H17v4.87a4.81,4.81,0,0,0,.12,1.16,2,2,0,0,0,.35.76,1.34,1.34,0,0,0,.54.41,1.94,1.94,0,0,0,.7.12,2,2,0,0,0,.71-.12,1.4,1.4,0,0,0,.56-.41,2.15,2.15,0,0,0,.36-.76,4.31,4.31,0,0,0,.13-1.16V31.29h1.44V36a6.58,6.58,0,0,1-.22,1.79A3.15,3.15,0,0,1,21.07,39a2.48,2.48,0,0,1-1,.68A3.75,3.75,0,0,1,18.73,39.92Z" transform="translate(-8.95 -23.12)"/>
    <path class="cls-6" d="M31,39.76V31.29h5.1v1.27h-3.6v2.16h3.05V36H32.47v2.5H36.2v1.27Z" transform="translate(-8.95 -23.12)"/>
    <g>
      <path class="cls-7" d="M52.35,30.16a1.33,1.33,0,0,0,1.07,1.31l.26,0,.26,0a1.33,1.33,0,0,0-.26-2.64A1.33,1.33,0,0,0,52.35,30.16Z" transform="translate(-8.95 -23.12)"/>
      <path class="cls-8" d="M53,44.2a2.65,2.65,0,0,1-2-2.57,2.62,2.62,0,0,1,.67-1.76A2.65,2.65,0,0,1,53.5,39h.15a1.62,1.62,0,0,0,1-.3.94.94,0,0,0,.38-.79.91.91,0,0,0-.1-.45,1,1,0,0,0-.27-.32,2.74,2.74,0,0,0-.42-.25,4.43,4.43,0,0,0-.53-.23l-1.17-.51a4.66,4.66,0,0,1-.62-.33,2.74,2.74,0,0,1-.55-.47,2,2,0,0,1-.4-.64A2.31,2.31,0,0,1,51,32.91a2.59,2.59,0,0,1,.6-.76l.18-.15A2.61,2.61,0,0,1,53,27.63V23.12a9.49,9.49,0,0,0-4.56,1.57h0a9.41,9.41,0,0,0-2.6,13.05L53,48.32Z" transform="translate(-8.95 -23.12)"/>
      <path class="cls-9" d="M58.89,24.71h0a9.23,9.23,0,0,0-4.57-1.58v4.5A2.62,2.62,0,0,1,55.57,32a2.65,2.65,0,0,1-1.81.81h-.15a1.59,1.59,0,0,0-.89.26.89.89,0,0,0-.37.74.72.72,0,0,0,.12.42,1.12,1.12,0,0,0,.3.32,2.19,2.19,0,0,0,.43.24l.51.22,1.16.48a4.51,4.51,0,0,1,.69.37,2.51,2.51,0,0,1,.54.48,1.79,1.79,0,0,1,.36.63,2.37,2.37,0,0,1,.13.83,2.25,2.25,0,0,1-.81,1.78,2.32,2.32,0,0,1-.3.22,2.62,2.62,0,0,1,.77,1.86,2.65,2.65,0,0,1-2,2.57v4.26l7.19-10.69A9.39,9.39,0,0,0,58.89,24.71Z" transform="translate(-8.95 -23.12)"/>
      <path class="cls-10" d="M55,41.63a1.37,1.37,0,0,0-1.18-1.34H53.6l-.2,0A1.35,1.35,0,1,0,55,41.63Z" transform="translate(-8.95 -23.12)"/>
    </g>
  </g>
</svg>
