<?xml version="1.0" encoding="utf-8"?>
<!-- Generator: Adobe Illustrator 23.0.4, SVG Export Plug-In . SVG Version: 6.00 Build 0)  -->
<svg version="1.1" id="Layer_1" xmlns="http://www.w3.org/2000/svg" xmlns:xlink="http://www.w3.org/1999/xlink" x="0px" y="0px"
	 viewBox="0 0 90 90" style="enable-background:new 0 0 90 90;" xml:space="preserve">
<style type="text/css">
	.st0{clip-path:url(#SVGID_2_);}
	.st1{filter:url(#Adobe_OpacityMaskFilter);}
	.st2{clip-path:url(#SVGID_4_);fill:url(#SVGID_6_);}
	.st3{clip-path:url(#SVGID_4_);mask:url(#SVGID_5_);fill:url(#SVGID_7_);}
	.st4{filter:url(#Adobe_OpacityMaskFilter_1_);}
	.st5{clip-path:url(#SVGID_9_);fill:url(#SVGID_11_);}
	.st6{clip-path:url(#SVGID_9_);mask:url(#SVGID_10_);fill:url(#SVGID_12_);}
	.st7{filter:url(#Adobe_OpacityMaskFilter_2_);}
	.st8{clip-path:url(#SVGID_14_);fill:url(#SVGID_16_);}
	.st9{clip-path:url(#SVGID_14_);mask:url(#SVGID_15_);fill:url(#SVGID_17_);}
	.st10{filter:url(#Adobe_OpacityMaskFilter_3_);}
	.st11{clip-path:url(#SVGID_19_);fill:url(#SVGID_21_);}
	.st12{clip-path:url(#SVGID_19_);mask:url(#SVGID_20_);fill:url(#SVGID_22_);}
	.st13{filter:url(#Adobe_OpacityMaskFilter_4_);}
	.st14{clip-path:url(#SVGID_24_);fill:url(#SVGID_26_);}
	.st15{clip-path:url(#SVGID_24_);mask:url(#SVGID_25_);fill:url(#SVGID_27_);}
	.st16{filter:url(#Adobe_OpacityMaskFilter_5_);}
	.st17{clip-path:url(#SVGID_29_);fill:url(#SVGID_31_);}
	.st18{clip-path:url(#SVGID_29_);mask:url(#SVGID_30_);fill:url(#SVGID_32_);}
	.st19{filter:url(#Adobe_OpacityMaskFilter_6_);}
	.st20{clip-path:url(#SVGID_34_);fill:url(#SVGID_36_);}
	.st21{clip-path:url(#SVGID_34_);mask:url(#SVGID_35_);fill:url(#SVGID_37_);}
	.st22{filter:url(#Adobe_OpacityMaskFilter_7_);}
	.st23{clip-path:url(#SVGID_39_);fill:url(#SVGID_41_);}
	.st24{clip-path:url(#SVGID_39_);mask:url(#SVGID_40_);fill:url(#SVGID_42_);}
	.st25{filter:url(#Adobe_OpacityMaskFilter_8_);}
	.st26{clip-path:url(#SVGID_44_);fill:url(#SVGID_46_);}
	.st27{clip-path:url(#SVGID_44_);mask:url(#SVGID_45_);fill:url(#SVGID_47_);}
	.st28{filter:url(#Adobe_OpacityMaskFilter_9_);}
	.st29{clip-path:url(#SVGID_49_);fill:url(#SVGID_51_);}
	.st30{clip-path:url(#SVGID_49_);mask:url(#SVGID_50_);fill:url(#SVGID_52_);}
</style>
<g>
	<defs>
		<rect id="SVGID_1_" width="90" height="90"/>
	</defs>
	<clipPath id="SVGID_2_">
		<use xlink:href="#SVGID_1_"  style="overflow:visible;"/>
	</clipPath>
	<g class="st0">
		<defs>
			<path id="SVGID_3_" d="M34.89,32.18v4.53c-1.09,0.28-1.9,1.26-1.9,2.44c0,0.69,0.28,1.32,0.73,1.77c0.2-0.14,0.43-0.26,0.69-0.35
				c0.26-0.09,0.54-0.15,0.84-0.17c-0.59-0.11-1.03-0.63-1.03-1.26c0-0.71,0.57-1.28,1.28-1.28c0.71,0,1.28,0.57,1.28,1.28
				c0,0.62-0.44,1.14-1.03,1.26c0.39,0.03,0.77,0.12,1.14,0.28c0.15,0.06,0.29,0.13,0.42,0.21c0.43-0.45,0.7-1.07,0.7-1.74
				c0-1.17-0.81-2.16-1.9-2.44v-4.53H34.89z"/>
		</defs>
		<clipPath id="SVGID_4_">
			<use xlink:href="#SVGID_3_"  style="overflow:visible;"/>
		</clipPath>
		<defs>
			<filter id="Adobe_OpacityMaskFilter" filterUnits="userSpaceOnUse" x="32.99" y="32.18" width="5.03" height="8.74">
				<feColorMatrix  type="matrix" values="1 0 0 0 0  0 1 0 0 0  0 0 1 0 0  0 0 0 1 0"/>
			</filter>
		</defs>
		<mask maskUnits="userSpaceOnUse" x="32.99" y="32.18" width="5.03" height="8.74" id="SVGID_5_">
			<g class="st1">
				
					<linearGradient id="SVGID_6_" gradientUnits="userSpaceOnUse" x1="1.840623e-04" y1="90" x2="0.9999" y2="90" gradientTransform="matrix(5.0362 0 0 -5.0362 32.9881 489.8018)">
					<stop  offset="0" style="stop-color:#878787"/>
					<stop  offset="0.2268" style="stop-color:#A5A5A5"/>
					<stop  offset="0.7521" style="stop-color:#E6E6E6"/>
					<stop  offset="1" style="stop-color:#FFFFFF"/>
				</linearGradient>
				<rect x="32.99" y="32.18" class="st2" width="5.03" height="8.74"/>
			</g>
		</mask>
		
			<linearGradient id="SVGID_7_" gradientUnits="userSpaceOnUse" x1="1.840623e-04" y1="90" x2="0.9999" y2="90" gradientTransform="matrix(5.0362 0 0 -5.0362 32.9881 489.8018)">
			<stop  offset="0" style="stop-color:#29ABE2"/>
			<stop  offset="0.099" style="stop-color:#41A6DC"/>
			<stop  offset="0.5447" style="stop-color:#A68FC2"/>
			<stop  offset="0.8544" style="stop-color:#E681B2"/>
			<stop  offset="1" style="stop-color:#FF7BAC"/>
		</linearGradient>
		<rect x="32.99" y="32.18" class="st3" width="5.03" height="8.74"/>
	</g>
	<g class="st0">
		<defs>
			<path id="SVGID_8_" d="M36.6,48.71c-0.3,0.11-0.64,0.17-1,0.19c0.64,0.08,1.13,0.63,1.13,1.29c0,0.72-0.58,1.3-1.3,1.3
				s-1.3-0.58-1.3-1.3c0-0.65,0.48-1.19,1.1-1.28c-0.51-0.02-1-0.12-1.47-0.31c-0.08-0.03-0.16-0.07-0.24-0.11
				c-0.4,0.45-0.65,1.05-0.65,1.7c0,1.19,0.82,2.19,1.92,2.47v4.99h1.25v-4.99c1.1-0.28,1.92-1.28,1.92-2.47
				c0-0.7-0.28-1.33-0.74-1.79C37.05,48.52,36.84,48.62,36.6,48.71"/>
		</defs>
		<clipPath id="SVGID_9_">
			<use xlink:href="#SVGID_8_"  style="overflow:visible;"/>
		</clipPath>
		<defs>
			<filter id="Adobe_OpacityMaskFilter_1_" filterUnits="userSpaceOnUse" x="32.88" y="48.39" width="5.1" height="9.25">
				<feColorMatrix  type="matrix" values="1 0 0 0 0  0 1 0 0 0  0 0 1 0 0  0 0 0 1 0"/>
			</filter>
		</defs>
		<mask maskUnits="userSpaceOnUse" x="32.88" y="48.39" width="5.1" height="9.25" id="SVGID_10_">
			<g class="st4">
				
					<linearGradient id="SVGID_11_" gradientUnits="userSpaceOnUse" x1="1.046326e-05" y1="90.0001" x2="1" y2="90.0001" gradientTransform="matrix(5.1041 0 0 -5.1041 32.8759 512.3889)">
					<stop  offset="0" style="stop-color:#878787"/>
					<stop  offset="0.2268" style="stop-color:#A5A5A5"/>
					<stop  offset="0.7521" style="stop-color:#E6E6E6"/>
					<stop  offset="1" style="stop-color:#FFFFFF"/>
				</linearGradient>
				<rect x="32.88" y="48.39" class="st5" width="5.1" height="9.25"/>
			</g>
		</mask>
		
			<linearGradient id="SVGID_12_" gradientUnits="userSpaceOnUse" x1="1.046325e-05" y1="90.0001" x2="1" y2="90.0001" gradientTransform="matrix(5.1041 0 0 -5.1041 32.8759 512.3889)">
			<stop  offset="0" style="stop-color:#29ABE2"/>
			<stop  offset="0.099" style="stop-color:#41A6DC"/>
			<stop  offset="0.5447" style="stop-color:#A68FC2"/>
			<stop  offset="0.8544" style="stop-color:#E681B2"/>
			<stop  offset="1" style="stop-color:#FF7BAC"/>
		</linearGradient>
		<rect x="32.88" y="48.39" class="st6" width="5.1" height="9.25"/>
	</g>
	<g class="st0">
		<defs>
			<path id="SVGID_13_" d="M35.51,40.42c-0.08,0-0.17-0.01-0.25-0.03c-0.3,0.02-0.58,0.08-0.84,0.17c-0.26,0.09-0.49,0.21-0.69,0.35
				c-0.06,0.04-0.12,0.09-0.18,0.14c-0.24,0.21-0.43,0.45-0.57,0.74c-0.14,0.28-0.21,0.58-0.21,0.91c0,0.3,0.05,0.57,0.15,0.8
				c0.1,0.23,0.22,0.44,0.38,0.62c0.16,0.18,0.34,0.33,0.53,0.45c0.2,0.13,0.4,0.23,0.6,0.31l1.13,0.49
				c0.18,0.08,0.35,0.15,0.51,0.23c0.16,0.08,0.29,0.16,0.4,0.25c0.11,0.09,0.2,0.19,0.26,0.31c0.06,0.12,0.09,0.26,0.09,0.43
				c0,0.32-0.12,0.57-0.36,0.77c-0.23,0.18-0.55,0.27-0.97,0.29c-0.03,0-0.06,0-0.1,0c-0.02,0-0.03,0-0.05,0
				c-0.72,0.02-1.36,0.35-1.81,0.85c0.08,0.04,0.15,0.07,0.24,0.11c0.47,0.19,0.97,0.3,1.47,0.31c0.06-0.01,0.13-0.01,0.19-0.01
				c0.06,0,0.11,0,0.17,0.01c0.37-0.02,0.7-0.08,1-0.19c0.24-0.09,0.45-0.19,0.65-0.32c0.1-0.06,0.19-0.14,0.28-0.21
				c0.26-0.22,0.45-0.48,0.58-0.77c0.13-0.29,0.2-0.61,0.2-0.94c0-0.3-0.04-0.57-0.12-0.8c-0.08-0.23-0.2-0.43-0.35-0.61
				c-0.15-0.18-0.32-0.33-0.52-0.46c-0.2-0.13-0.42-0.25-0.67-0.35l-1.12-0.46c-0.17-0.07-0.33-0.14-0.49-0.21
				c-0.16-0.07-0.3-0.15-0.42-0.24c-0.12-0.09-0.22-0.19-0.29-0.3c-0.07-0.11-0.11-0.25-0.11-0.41c0-0.3,0.12-0.54,0.35-0.71
				c0.22-0.16,0.51-0.25,0.86-0.26c0.03,0,0.05,0,0.08,0c0.02,0,0.04,0,0.06,0c0.68-0.02,1.3-0.32,1.74-0.78
				c-0.13-0.08-0.27-0.15-0.42-0.21c-0.37-0.16-0.75-0.25-1.14-0.28C35.68,40.41,35.59,40.42,35.51,40.42"/>
		</defs>
		<clipPath id="SVGID_14_">
			<use xlink:href="#SVGID_13_"  style="overflow:visible;"/>
		</clipPath>
		<defs>
			<filter id="Adobe_OpacityMaskFilter_2_" filterUnits="userSpaceOnUse" x="32.76" y="40.4" width="5.55" height="8.5">
				<feColorMatrix  type="matrix" values="1 0 0 0 0  0 1 0 0 0  0 0 1 0 0  0 0 0 1 0"/>
			</filter>
		</defs>
		<mask maskUnits="userSpaceOnUse" x="32.76" y="40.4" width="5.55" height="8.5" id="SVGID_15_">
			<g class="st7">
				
					<linearGradient id="SVGID_16_" gradientUnits="userSpaceOnUse" x1="-7.562370e-06" y1="90" x2="1" y2="90" gradientTransform="matrix(5.5487 0 0 -5.5487 32.764 544.0349)">
					<stop  offset="0" style="stop-color:#FFFFFF"/>
					<stop  offset="0.0109" style="stop-color:#FEFEFE"/>
					<stop  offset="1" style="stop-color:#878787"/>
				</linearGradient>
				<rect x="32.76" y="40.4" class="st8" width="5.55" height="8.5"/>
			</g>
		</mask>
		
			<linearGradient id="SVGID_17_" gradientUnits="userSpaceOnUse" x1="-7.562370e-06" y1="90" x2="1" y2="90" gradientTransform="matrix(5.5487 0 0 -5.5487 32.764 544.0349)">
			<stop  offset="0" style="stop-color:#FF7BAC"/>
			<stop  offset="0.5296" style="stop-color:#7676B5"/>
			<stop  offset="1" style="stop-color:#0071BC"/>
		</linearGradient>
		<rect x="32.76" y="40.4" class="st9" width="5.55" height="8.5"/>
	</g>
	<g class="st0">
		<defs>
			<polygon id="SVGID_18_" points="17.95,40.29 17.95,48.76 19.45,48.76 19.45,45.23 22.53,45.23 22.53,43.96 19.45,43.96 
				19.45,41.56 23.07,41.56 23.07,40.29 			"/>
		</defs>
		<clipPath id="SVGID_19_">
			<use xlink:href="#SVGID_18_"  style="overflow:visible;"/>
		</clipPath>
		<defs>
			<filter id="Adobe_OpacityMaskFilter_3_" filterUnits="userSpaceOnUse" x="17.95" y="40.29" width="5.12" height="8.47">
				<feColorMatrix  type="matrix" values="1 0 0 0 0  0 1 0 0 0  0 0 1 0 0  0 0 0 1 0"/>
			</filter>
		</defs>
		<mask maskUnits="userSpaceOnUse" x="17.95" y="40.29" width="5.12" height="8.47" id="SVGID_20_">
			<g class="st10">
				
					<linearGradient id="SVGID_21_" gradientUnits="userSpaceOnUse" x1="2.796026e-05" y1="90" x2="1" y2="90" gradientTransform="matrix(5.1162 0 0 -5.1162 17.9499 504.9871)">
					<stop  offset="0" style="stop-color:#FFFFFF"/>
					<stop  offset="0.0109" style="stop-color:#FEFEFE"/>
					<stop  offset="1" style="stop-color:#878787"/>
				</linearGradient>
				<rect x="17.95" y="40.29" class="st11" width="5.12" height="8.47"/>
			</g>
		</mask>
		
			<linearGradient id="SVGID_22_" gradientUnits="userSpaceOnUse" x1="2.796026e-05" y1="90" x2="1" y2="90" gradientTransform="matrix(5.1162 0 0 -5.1162 17.9499 504.9871)">
			<stop  offset="0" style="stop-color:#FF7BAC"/>
			<stop  offset="0.5296" style="stop-color:#7676B5"/>
			<stop  offset="1" style="stop-color:#0071BC"/>
		</linearGradient>
		<rect x="17.95" y="40.29" class="st12" width="5.12" height="8.47"/>
	</g>
	<g class="st0">
		<defs>
			<path id="SVGID_23_" d="M29.49,40.29v4.87c0,0.46-0.04,0.84-0.13,1.16c-0.09,0.31-0.21,0.57-0.36,0.76
				c-0.15,0.19-0.34,0.33-0.56,0.41c-0.22,0.08-0.45,0.12-0.71,0.12s-0.49-0.04-0.7-0.12c-0.21-0.08-0.39-0.22-0.54-0.41
				c-0.15-0.19-0.27-0.44-0.35-0.76s-0.12-0.7-0.12-1.16v-4.87h-1.5v4.75c0,0.7,0.07,1.29,0.23,1.78c0.15,0.49,0.37,0.89,0.65,1.2
				c0.28,0.31,0.62,0.54,1.01,0.68c0.39,0.14,0.83,0.21,1.33,0.21s0.93-0.07,1.33-0.21c0.39-0.14,0.73-0.37,1.01-0.68
				c0.28-0.31,0.49-0.71,0.64-1.2c0.15-0.49,0.22-1.08,0.22-1.78v-4.75H29.49z"/>
		</defs>
		<clipPath id="SVGID_24_">
			<use xlink:href="#SVGID_23_"  style="overflow:visible;"/>
		</clipPath>
		<defs>
			<filter id="Adobe_OpacityMaskFilter_4_" filterUnits="userSpaceOnUse" x="24.52" y="40.29" width="6.41" height="8.63">
				<feColorMatrix  type="matrix" values="1 0 0 0 0  0 1 0 0 0  0 0 1 0 0  0 0 0 1 0"/>
			</filter>
		</defs>
		<mask maskUnits="userSpaceOnUse" x="24.52" y="40.29" width="6.41" height="8.63" id="SVGID_25_">
			<g class="st13">
				
					<linearGradient id="SVGID_26_" gradientUnits="userSpaceOnUse" x1="3.986358e-05" y1="90" x2="1" y2="90" gradientTransform="matrix(6.4115 0 0 -6.4115 24.5167 621.6376)">
					<stop  offset="0" style="stop-color:#FFFFFF"/>
					<stop  offset="0.0109" style="stop-color:#FEFEFE"/>
					<stop  offset="1" style="stop-color:#878787"/>
				</linearGradient>
				<rect x="24.52" y="40.29" class="st14" width="6.41" height="8.63"/>
			</g>
		</mask>
		
			<linearGradient id="SVGID_27_" gradientUnits="userSpaceOnUse" x1="3.986358e-05" y1="90" x2="1" y2="90" gradientTransform="matrix(6.4115 0 0 -6.4115 24.5167 621.6376)">
			<stop  offset="0" style="stop-color:#FF7BAC"/>
			<stop  offset="0.5296" style="stop-color:#7676B5"/>
			<stop  offset="1" style="stop-color:#0071BC"/>
		</linearGradient>
		<rect x="24.52" y="40.29" class="st15" width="6.41" height="8.63"/>
	</g>
	<g class="st0">
		<defs>
			<polygon id="SVGID_28_" points="39.97,40.29 39.97,48.76 45.2,48.76 45.2,47.49 41.47,47.49 41.47,44.99 44.52,44.99 
				44.52,43.72 41.47,43.72 41.47,41.56 45.07,41.56 45.07,40.29 			"/>
		</defs>
		<clipPath id="SVGID_29_">
			<use xlink:href="#SVGID_28_"  style="overflow:visible;"/>
		</clipPath>
		<defs>
			<filter id="Adobe_OpacityMaskFilter_5_" filterUnits="userSpaceOnUse" x="39.97" y="40.29" width="5.23" height="8.47">
				<feColorMatrix  type="matrix" values="1 0 0 0 0  0 1 0 0 0  0 0 1 0 0  0 0 0 1 0"/>
			</filter>
		</defs>
		<mask maskUnits="userSpaceOnUse" x="39.97" y="40.29" width="5.23" height="8.47" id="SVGID_30_">
			<g class="st16">
				
					<linearGradient id="SVGID_31_" gradientUnits="userSpaceOnUse" x1="-4.738581e-05" y1="90" x2="1" y2="90" gradientTransform="matrix(5.2327 0 0 -5.2327 39.9692 515.4686)">
					<stop  offset="0" style="stop-color:#FFFFFF"/>
					<stop  offset="1" style="stop-color:#878787"/>
				</linearGradient>
				<rect x="39.97" y="40.29" class="st17" width="5.23" height="8.47"/>
			</g>
		</mask>
		
			<linearGradient id="SVGID_32_" gradientUnits="userSpaceOnUse" x1="-4.738581e-05" y1="90" x2="1" y2="90" gradientTransform="matrix(5.2327 0 0 -5.2327 39.9692 515.4686)">
			<stop  offset="0" style="stop-color:#FF7BAC"/>
			<stop  offset="1" style="stop-color:#0071BC"/>
		</linearGradient>
		<rect x="39.97" y="40.29" class="st18" width="5.23" height="8.47"/>
	</g>
	<g class="st0">
		<defs>
			<path id="SVGID_33_" d="M61.35,39.16c0,0.65,0.46,1.19,1.07,1.31c0.08,0.02,0.17,0.02,0.26,0.02c0.09,0,0.18-0.01,0.26-0.03
				c0.61-0.12,1.07-0.66,1.07-1.31c0-0.73-0.6-1.33-1.33-1.33C61.94,37.83,61.35,38.43,61.35,39.16"/>
		</defs>
		<clipPath id="SVGID_34_">
			<use xlink:href="#SVGID_33_"  style="overflow:visible;"/>
		</clipPath>
		<defs>
			<filter id="Adobe_OpacityMaskFilter_6_" filterUnits="userSpaceOnUse" x="61.3" y="37.79" width="2.75" height="2.75">
				<feColorMatrix  type="matrix" values="1 0 0 0 0  0 1 0 0 0  0 0 1 0 0  0 0 0 1 0"/>
			</filter>
		</defs>
		<mask maskUnits="userSpaceOnUse" x="61.3" y="37.79" width="2.75" height="2.75" id="SVGID_35_">
			<g class="st19">
				
					<linearGradient id="SVGID_36_" gradientUnits="userSpaceOnUse" x1="0" y1="90" x2="1" y2="90" gradientTransform="matrix(18.4301 -0.2973 -0.2973 -18.4301 79.9146 1698.0193)">
					<stop  offset="0" style="stop-color:#FFFFFF"/>
					<stop  offset="0.0109" style="stop-color:#FEFEFE"/>
					<stop  offset="1" style="stop-color:#878787"/>
				</linearGradient>
				<polygon class="st20" points="61.3,37.83 64.01,37.79 64.05,40.49 61.35,40.53 				"/>
			</g>
		</mask>
		
			<linearGradient id="SVGID_37_" gradientUnits="userSpaceOnUse" x1="0" y1="90" x2="1" y2="90" gradientTransform="matrix(18.4301 -0.2973 -0.2973 -18.4301 79.9146 1698.0192)">
			<stop  offset="0" style="stop-color:#FF7BAC"/>
			<stop  offset="0.5296" style="stop-color:#7676B5"/>
			<stop  offset="1" style="stop-color:#0071BC"/>
		</linearGradient>
		<polygon class="st21" points="61.3,37.83 64.01,37.79 64.05,40.49 61.35,40.53 		"/>
	</g>
	<g class="st0">
		<defs>
			<path id="SVGID_38_" d="M57.48,33.69c-4.32,2.89-5.49,8.73-2.6,13.06l7.06,10.58V53.2c-1.15-0.29-2-1.33-2-2.57
				c0-0.68,0.26-1.3,0.67-1.77c0.47-0.52,1.14-0.86,1.89-0.88h0.05c0.03,0,0.07,0,0.1,0c0.44-0.01,0.77-0.11,1.01-0.3
				c0.25-0.2,0.38-0.47,0.38-0.8c0-0.17-0.03-0.32-0.1-0.44c-0.06-0.12-0.16-0.23-0.27-0.32c-0.12-0.09-0.26-0.17-0.42-0.26
				c-0.16-0.08-0.34-0.15-0.53-0.23l-1.17-0.51c-0.21-0.09-0.42-0.19-0.62-0.33c-0.2-0.13-0.39-0.29-0.55-0.47
				c-0.17-0.18-0.3-0.4-0.4-0.64c-0.1-0.24-0.15-0.52-0.15-0.84c0-0.34,0.07-0.65,0.22-0.95c0.14-0.29,0.34-0.54,0.59-0.76
				c0.06-0.05,0.12-0.1,0.19-0.15c-0.47-0.47-0.76-1.12-0.76-1.84c0-1.22,0.84-2.25,1.97-2.53v-4.5
				C60.46,32.24,58.89,32.74,57.48,33.69"/>
		</defs>
		<clipPath id="SVGID_39_">
			<use xlink:href="#SVGID_38_"  style="overflow:visible;"/>
		</clipPath>
		<defs>
			<filter id="Adobe_OpacityMaskFilter_7_" filterUnits="userSpaceOnUse" x="51.59" y="31.93" width="12.86" height="25.59">
				<feColorMatrix  type="matrix" values="1 0 0 0 0  0 1 0 0 0  0 0 1 0 0  0 0 0 1 0"/>
			</filter>
		</defs>
		<mask maskUnits="userSpaceOnUse" x="51.59" y="31.93" width="12.86" height="25.59" id="SVGID_40_">
			<g class="st22">
				
					<linearGradient id="SVGID_41_" gradientUnits="userSpaceOnUse" x1="0" y1="90.0034" x2="1" y2="90.0034" gradientTransform="matrix(18.4301 -0.2973 -0.2973 -18.4301 80.0041 1703.5709)">
					<stop  offset="0" style="stop-color:#FFFFFF"/>
					<stop  offset="0.0109" style="stop-color:#FEFEFE"/>
					<stop  offset="1" style="stop-color:#878787"/>
				</linearGradient>
				<polygon class="st23" points="51.59,32.13 64.04,31.93 64.45,57.32 52,57.52 				"/>
			</g>
		</mask>
		
			<linearGradient id="SVGID_42_" gradientUnits="userSpaceOnUse" x1="0" y1="90.0034" x2="1" y2="90.0034" gradientTransform="matrix(18.4301 -0.2973 -0.2973 -18.4301 80.0041 1703.5707)">
			<stop  offset="0" style="stop-color:#FF7BAC"/>
			<stop  offset="0.5296" style="stop-color:#7676B5"/>
			<stop  offset="1" style="stop-color:#0071BC"/>
		</linearGradient>
		<polygon class="st24" points="51.59,32.13 64.04,31.93 64.45,57.32 52,57.52 		"/>
	</g>
	<g class="st0">
		<defs>
			<path id="SVGID_43_" d="M63.32,36.63c1.13,0.29,1.97,1.31,1.97,2.53c0,0.7-0.28,1.34-0.72,1.81c-0.46,0.48-1.1,0.79-1.81,0.81
				c-0.02,0-0.04,0-0.06,0c-0.03,0-0.06,0-0.09,0c-0.37,0.01-0.67,0.1-0.89,0.27c-0.24,0.18-0.36,0.42-0.36,0.74
				c0,0.16,0.04,0.31,0.11,0.42c0.07,0.12,0.17,0.22,0.3,0.31c0.13,0.09,0.27,0.17,0.44,0.25c0.17,0.07,0.33,0.15,0.51,0.22
				l1.16,0.48c0.25,0.1,0.48,0.23,0.69,0.36c0.21,0.14,0.39,0.3,0.54,0.48c0.15,0.18,0.27,0.39,0.36,0.63
				c0.09,0.24,0.13,0.52,0.13,0.83c0,0.35-0.07,0.67-0.21,0.98c-0.14,0.31-0.34,0.57-0.61,0.8c-0.09,0.08-0.19,0.15-0.29,0.22
				c0.47,0.48,0.76,1.14,0.76,1.86c0,1.24-0.85,2.28-2,2.57v4.26l7.19-10.69c2.9-4.31,1.76-10.16-2.55-13.07
				c-1.41-0.95-2.99-1.47-4.57-1.58V36.63z"/>
		</defs>
		<clipPath id="SVGID_44_">
			<use xlink:href="#SVGID_43_"  style="overflow:visible;"/>
		</clipPath>
		<defs>
			<filter id="Adobe_OpacityMaskFilter_8_" filterUnits="userSpaceOnUse" x="60.95" y="31.93" width="12.81" height="25.72">
				<feColorMatrix  type="matrix" values="1 0 0 0 0  0 1 0 0 0  0 0 1 0 0  0 0 0 1 0"/>
			</filter>
		</defs>
		<mask maskUnits="userSpaceOnUse" x="60.95" y="31.93" width="12.81" height="25.72" id="SVGID_45_">
			<g class="st25">
				
					<linearGradient id="SVGID_46_" gradientUnits="userSpaceOnUse" x1="0" y1="89.9964" x2="1" y2="89.9964" gradientTransform="matrix(18.4301 -0.2973 -0.2973 -18.4301 80.0056 1703.6595)">
					<stop  offset="0" style="stop-color:#FFFFFF"/>
					<stop  offset="0.0109" style="stop-color:#FEFEFE"/>
					<stop  offset="1" style="stop-color:#878787"/>
				</linearGradient>
				<polygon class="st26" points="60.95,32.13 73.34,31.93 73.76,57.45 61.36,57.65 				"/>
			</g>
		</mask>
		
			<linearGradient id="SVGID_47_" gradientUnits="userSpaceOnUse" x1="0" y1="89.9964" x2="1" y2="89.9964" gradientTransform="matrix(18.4301 -0.2973 -0.2973 -18.4301 80.0055 1703.6593)">
			<stop  offset="0" style="stop-color:#FF7BAC"/>
			<stop  offset="0.5296" style="stop-color:#7676B5"/>
			<stop  offset="1" style="stop-color:#0071BC"/>
		</linearGradient>
		<polygon class="st27" points="60.95,32.13 73.34,31.93 73.76,57.45 61.36,57.65 		"/>
	</g>
	<g class="st0">
		<defs>
			<path id="SVGID_48_" d="M62.4,49.3c-0.65,0.1-1.15,0.66-1.15,1.33c0,0.74,0.61,1.35,1.35,1.35s1.35-0.6,1.35-1.35
				c0-0.69-0.51-1.25-1.17-1.34c-0.06-0.01-0.12-0.01-0.17-0.01C62.53,49.28,62.46,49.29,62.4,49.3"/>
		</defs>
		<clipPath id="SVGID_49_">
			<use xlink:href="#SVGID_48_"  style="overflow:visible;"/>
		</clipPath>
		<defs>
			<filter id="Adobe_OpacityMaskFilter_9_" filterUnits="userSpaceOnUse" x="61.2" y="49.24" width="2.79" height="2.79">
				<feColorMatrix  type="matrix" values="1 0 0 0 0  0 1 0 0 0  0 0 1 0 0  0 0 0 1 0"/>
			</filter>
		</defs>
		<mask maskUnits="userSpaceOnUse" x="61.2" y="49.24" width="2.79" height="2.79" id="SVGID_50_">
			<g class="st28">
				
					<linearGradient id="SVGID_51_" gradientUnits="userSpaceOnUse" x1="0" y1="90" x2="1" y2="90" gradientTransform="matrix(18.4301 -0.2973 -0.2973 -18.4301 80.0995 1709.4869)">
					<stop  offset="0" style="stop-color:#FFFFFF"/>
					<stop  offset="0.0109" style="stop-color:#FEFEFE"/>
					<stop  offset="1" style="stop-color:#878787"/>
				</linearGradient>
				<polygon class="st29" points="61.2,49.28 63.94,49.24 63.99,51.98 61.25,52.02 				"/>
			</g>
		</mask>
		
			<linearGradient id="SVGID_52_" gradientUnits="userSpaceOnUse" x1="0" y1="90" x2="1" y2="90" gradientTransform="matrix(18.4301 -0.2973 -0.2973 -18.4301 80.0995 1709.4868)">
			<stop  offset="0" style="stop-color:#FF7BAC"/>
			<stop  offset="0.5296" style="stop-color:#7676B5"/>
			<stop  offset="1" style="stop-color:#0071BC"/>
		</linearGradient>
		<polygon class="st30" points="61.2,49.28 63.94,49.24 63.99,51.98 61.25,52.02 		"/>
	</g>
</g>
</svg>
