<?xml version="1.0" encoding="utf-8"?>
<!-- Generator: Adobe Illustrator 23.1.1, SVG Export Plug-In . SVG Version: 6.00 Build 0)  -->
<svg version="1.1" id="Layer_1" xmlns="http://www.w3.org/2000/svg" xmlns:xlink="http://www.w3.org/1999/xlink" x="0px" y="0px"
	 viewBox="0 0 512 512" style="enable-background:new 0 0 512 512;" xml:space="preserve">
<style type="text/css">
	.st0{fill:#FFFFFF;}
</style>
<g>
	<g>
		<g>
			<path class="st0" d="M234.7,42.7H118.8c-17.9,0-34.5,8.9-44.4,23.8l-63.8,95.7C3.7,172.6,0,184.7,0,197.3s3.7,24.8,10.7,35.2
				l10.7,16v28.8c0,23.5,19.1,42.7,42.7,42.7h93.5c5.4,0,8.1,3.5,9.1,5.1c0.9,1.5,2.9,5.6,0.5,10.4l-34.2,68.5
				c-3.1,6.2-4.8,13.2-4.8,20.2c0,24.9,20.3,45.2,45.2,45.2h8.1c3,0,5.8-1.2,7.8-3.4L304,342.8c24-25.8,37.3-59.4,37.3-94.6v-98.9
				C341.3,90.5,293.5,42.7,234.7,42.7z"/>
			<path class="st0" d="M469.3,42.7h-64c-23.5,0-42.7,19.1-42.7,42.7v192c0,23.5,19.1,42.7,42.7,42.7h64c23.5,0,42.7-19.1,42.7-42.7
				v-192C512,61.8,492.9,42.7,469.3,42.7z"/>
		</g>
	</g>
</g>
</svg>
