<svg id="Instagram-Icon-01" xmlns="http://www.w3.org/2000/svg" xmlns:xlink="http://www.w3.org/1999/xlink" width="47.819" height="47.793" viewBox="0 0 47.819 47.793">
  <defs>
    <linearGradient id="linear-gradient" x1="0.326" y1="-0.08" x2="0.654" y2="1.016" gradientUnits="objectBoundingBox">
      <stop offset="0" stop-color="#4367dc"/>
      <stop offset="0.043" stop-color="#4c62d6"/>
      <stop offset="0.114" stop-color="#6654c7"/>
      <stop offset="0.205" stop-color="#8f3dae"/>
      <stop offset="0.234" stop-color="#9e35a5"/>
      <stop offset="0.451" stop-color="#d42f7f"/>
      <stop offset="0.824" stop-color="#d73578"/>
    </linearGradient>
    <linearGradient id="linear-gradient-2" x1="0.739" y1="0.099" x2="0.227" y2="0.959" gradientUnits="objectBoundingBox">
      <stop offset="0.33" stop-color="#d42f7f"/>
      <stop offset="1" stop-color="#f7772e"/>
    </linearGradient>
    <linearGradient id="linear-gradient-3" x1="0.273" y1="-0.041" x2="0.716" y2="1.014" gradientUnits="objectBoundingBox">
      <stop offset="0.234" stop-color="#9e35a5" stop-opacity="0"/>
      <stop offset="0.451" stop-color="#d42f7f" stop-opacity="0.502"/>
      <stop offset="0.752" stop-color="#f7772e"/>
      <stop offset="0.962" stop-color="#fef780"/>
    </linearGradient>
  </defs>
  <path id="패스_180" data-name="패스 180" d="M-113.651,112.644a17.64,17.64,0,0,0-1.114-5.8,11.781,11.781,0,0,0-2.751-4.232,11.609,11.609,0,0,0-4.232-2.751,17.64,17.64,0,0,0-5.8-1.114c-2.555-.118-3.367-.144-9.852-.144s-7.31.026-9.852.144a17.64,17.64,0,0,0-5.8,1.114,11.781,11.781,0,0,0-4.232,2.751,11.61,11.61,0,0,0-2.751,4.232,17.64,17.64,0,0,0-1.114,5.8c-.118,2.555-.144,3.367-.144,9.852s.026,7.31.144,9.852a17.64,17.64,0,0,0,1.114,5.8,11.781,11.781,0,0,0,2.751,4.232,11.609,11.609,0,0,0,4.232,2.751,17.64,17.64,0,0,0,5.8,1.114c2.555.118,3.367.144,9.852.144s7.31-.026,9.852-.144a17.64,17.64,0,0,0,5.8-1.114,11.781,11.781,0,0,0,4.232-2.751,11.609,11.609,0,0,0,2.751-4.232,17.64,17.64,0,0,0,1.114-5.8c.118-2.555.144-3.367.144-9.852S-113.534,115.186-113.651,112.644Zm-4.3,19.508a13.156,13.156,0,0,1-.825,4.441,7.426,7.426,0,0,1-1.795,2.751,7.591,7.591,0,0,1-2.751,1.795,13.156,13.156,0,0,1-4.441.825c-2.515.118-3.275.144-9.655.144s-7.14-.026-9.655-.144a13.156,13.156,0,0,1-4.441-.825,7.425,7.425,0,0,1-2.751-1.795,7.591,7.591,0,0,1-1.795-2.751,13.155,13.155,0,0,1-.825-4.441c-.118-2.515-.144-3.275-.144-9.656s.026-7.14.144-9.656a13.155,13.155,0,0,1,.825-4.441,7.426,7.426,0,0,1,1.795-2.751,7.591,7.591,0,0,1,2.751-1.795,13.156,13.156,0,0,1,4.441-.825c2.515-.118,3.275-.144,9.655-.144s7.14.026,9.655.144a13.156,13.156,0,0,1,4.441.825,7.426,7.426,0,0,1,2.751,1.795,7.591,7.591,0,0,1,1.795,2.751,13.156,13.156,0,0,1,.825,4.441c.118,2.515.144,3.275.144,9.656S-117.844,129.637-117.949,132.152Z" transform="translate(161.326 -98.6)" fill="url(#linear-gradient)"/>
  <path id="패스_181" data-name="패스 181" d="M-60.424,187.3A12.276,12.276,0,0,0-72.7,199.576a12.276,12.276,0,0,0,12.276,12.276,12.284,12.284,0,0,0,12.276-12.276A12.267,12.267,0,0,0-60.424,187.3Zm0,20.241a7.962,7.962,0,0,1-7.965-7.965,7.962,7.962,0,0,1,7.965-7.965,7.962,7.962,0,0,1,7.965,7.965A7.962,7.962,0,0,1-60.424,207.541Z" transform="translate(84.334 -175.679)" fill="url(#linear-gradient-2)"/>
  <ellipse id="타원_19" data-name="타원 19" cx="2.869" cy="2.869" rx="2.869" ry="2.869" transform="translate(33.801 8.267)" fill="#bc30a0"/>
  <path id="패스_182" data-name="패스 182" d="M-161.5,122.5c0,6.5.026,7.31.144,9.852a17.64,17.64,0,0,0,1.114,5.8,11.781,11.781,0,0,0,2.751,4.232,11.609,11.609,0,0,0,4.232,2.751,17.64,17.64,0,0,0,5.8,1.114c2.555.118,3.367.144,9.852.144s7.31-.026,9.852-.144a17.64,17.64,0,0,0,5.8-1.114,11.781,11.781,0,0,0,4.232-2.751,11.609,11.609,0,0,0,2.751-4.232,17.639,17.639,0,0,0,1.114-5.8c.118-2.555.144-3.367.144-9.852s-.026-7.31-.144-9.852a17.639,17.639,0,0,0-1.114-5.8,11.781,11.781,0,0,0-2.751-4.232,11.609,11.609,0,0,0-4.232-2.751,17.64,17.64,0,0,0-5.8-1.114c-2.555-.118-3.367-.144-9.852-.144s-7.31.026-9.852.144a17.64,17.64,0,0,0-5.8,1.114,11.781,11.781,0,0,0-4.232,2.751,11.609,11.609,0,0,0-2.751,4.232,17.64,17.64,0,0,0-1.114,5.8C-161.474,115.186-161.5,116-161.5,122.5Zm4.31,0c0-6.38.026-7.14.144-9.656a13.155,13.155,0,0,1,.825-4.441,7.426,7.426,0,0,1,1.795-2.751,7.591,7.591,0,0,1,2.751-1.795,13.156,13.156,0,0,1,4.441-.825c2.515-.118,3.275-.144,9.655-.144s7.14.026,9.655.144a13.155,13.155,0,0,1,4.441.825,7.426,7.426,0,0,1,2.751,1.795,7.591,7.591,0,0,1,1.795,2.751,13.155,13.155,0,0,1,.825,4.441c.118,2.515.144,3.275.144,9.656s-.026,7.14-.144,9.656a13.155,13.155,0,0,1-.825,4.441,7.426,7.426,0,0,1-1.795,2.751,7.591,7.591,0,0,1-2.751,1.795,13.156,13.156,0,0,1-4.441.825c-2.515.118-3.275.144-9.655.144s-7.14-.026-9.655-.144a13.156,13.156,0,0,1-4.441-.825,7.425,7.425,0,0,1-2.751-1.795,7.591,7.591,0,0,1-1.795-2.751,13.155,13.155,0,0,1-.825-4.441C-157.164,129.637-157.19,128.877-157.19,122.5Z" transform="translate(161.5 -98.6)" fill="url(#linear-gradient-3)"/>
</svg>
